<svg width="93" height="40" viewBox="0 0 93 40" fill="none" xmlns="http://www.w3.org/2000/svg">
<path d="M25.6861 18.584H29.1621V18.5489C29.1621 17.0742 29.3143 15.8219 29.6186 14.7919C29.9229 13.7386 30.4144 12.8842 31.0933 12.2288C31.7955 11.5734 32.685 11.0935 33.7617 10.7892C34.8619 10.4849 36.1961 10.3328 37.7644 10.3328H38.1858V14.7217C37.2495 14.7217 36.5004 14.7802 35.9387 14.8973C35.3769 15.0143 34.9438 15.225 34.6395 15.5293C34.3586 15.8336 34.1714 16.2315 34.0777 16.7231C34.0075 17.2146 33.9724 17.8349 33.9724 18.584H38.1858V22.8325H33.9724V39.1242H29.1621V22.8325H25.6861V18.584Z" fill="url(#paint0_linear)"/>
<path d="M48.0795 39.5455C46.6048 39.5455 45.2121 39.2763 43.9012 38.738C42.6138 38.1762 41.4902 37.4154 40.5305 36.4557C39.5708 35.4726 38.8101 34.3373 38.2483 33.0499C37.7099 31.7391 37.4407 30.3463 37.4407 28.8716C37.4407 27.3735 37.7099 25.9808 38.2483 24.6934C38.8101 23.3825 39.5708 22.2473 40.5305 21.2875C41.4902 20.3278 42.6138 19.5671 43.9012 19.0053C45.2121 18.4435 46.6048 18.1626 48.0795 18.1626C49.5542 18.1626 50.9352 18.4435 52.2227 19.0053C53.5101 19.5671 54.6336 20.3278 55.5934 21.2875C56.5765 22.2473 57.3372 23.3825 57.8756 24.6934C58.4374 25.9808 58.7183 27.3735 58.7183 28.8716C58.7183 30.3463 58.4374 31.7391 57.8756 33.0499C57.3372 34.3373 56.5765 35.4726 55.5934 36.4557C54.6336 37.4154 53.5101 38.1762 52.2227 38.738C50.9352 39.2763 49.5542 39.5455 48.0795 39.5455ZM48.0795 35.0864C48.9222 35.0864 49.7063 34.9225 50.432 34.5948C51.1576 34.2671 51.7896 33.8223 52.328 33.2606C52.8664 32.6988 53.2877 32.0434 53.592 31.2943C53.8963 30.5219 54.0485 29.7143 54.0485 28.8716C54.0485 28.0055 53.8963 27.198 53.592 26.4489C53.2877 25.6765 52.8664 25.0094 52.328 24.4476C51.7896 23.8858 51.1576 23.4411 50.432 23.1133C49.7063 22.7856 48.9222 22.6218 48.0795 22.6218C47.2368 22.6218 46.441 22.7856 45.6919 23.1133C44.9663 23.4411 44.3343 23.8858 43.7959 24.4476C43.2809 25.0094 42.8713 25.6765 42.567 26.4489C42.2627 27.198 42.1106 28.0055 42.1106 28.8716C42.1106 29.7143 42.2627 30.5219 42.567 31.2943C42.8713 32.0434 43.2809 32.6988 43.7959 33.2606C44.3343 33.8223 44.9663 34.2671 45.6919 34.5948C46.441 34.9225 47.2368 35.0864 48.0795 35.0864Z" fill="url(#paint1_linear)"/>
<path d="M58.0034 18.584H61.5145V15.459L66.2897 12.1937V18.584H70.468V22.8325H66.2897V30.5219C66.2897 31.4114 66.3365 32.137 66.4302 32.6988C66.5238 33.2372 66.711 33.6585 66.9919 33.9628C67.2962 34.2437 67.7176 34.4309 68.256 34.5246C68.8177 34.6182 69.5551 34.665 70.468 34.665V39.1242H69.8009C68.2091 39.1242 66.8749 38.9837 65.7981 38.7028C64.7448 38.422 63.9021 37.9538 63.2701 37.2984C62.6381 36.6196 62.1817 35.7418 61.9008 34.665C61.6433 33.5649 61.5145 32.1955 61.5145 30.557V22.8325H58.0034V18.584Z" fill="url(#paint2_linear)"/>
<path d="M82.0573 39.5576C80.5404 39.5576 79.1079 39.2807 77.7596 38.7269C76.4354 38.1491 75.2797 37.3666 74.2926 36.3795C73.3055 35.3683 72.523 34.2006 71.9452 32.8763C71.3914 31.5281 71.1145 30.0955 71.1145 28.5787C71.1145 27.0378 71.3914 25.6053 71.9452 24.2811C72.523 22.9328 73.3055 21.7651 74.2926 20.7779C75.2797 19.7908 76.4354 19.0083 77.7596 18.4305C79.1079 17.8526 80.5404 17.5637 82.0573 17.5637C83.5741 17.5637 84.9946 17.8526 86.3188 18.4305C87.643 19.0083 88.7987 19.7908 89.7858 20.7779C90.797 21.7651 91.5795 22.9328 92.1333 24.2811C92.7111 25.6053 93 27.0378 93 28.5787C93 30.0955 92.7111 31.5281 92.1333 32.8763C91.5795 34.2006 90.797 35.3683 89.7858 36.3795C88.7987 37.3666 87.643 38.1491 86.3188 38.7269C84.9946 39.2807 83.5741 39.5576 82.0573 39.5576ZM82.0573 34.971C82.924 34.971 83.7306 34.8025 84.4769 34.4654C85.2233 34.1283 85.8734 33.6709 86.4271 33.093C86.9809 32.5152 87.4143 31.8411 87.7273 31.0706C88.0403 30.2761 88.1968 29.4455 88.1968 28.5787C88.1968 27.6879 88.0403 26.8572 87.7273 26.0868C87.4143 25.2923 86.9809 24.6061 86.4271 24.0283C85.8734 23.4504 85.2233 22.993 84.4769 22.6559C83.7306 22.3188 82.924 22.1503 82.0573 22.1503C81.1905 22.1503 80.3719 22.3188 79.6015 22.6559C78.8551 22.993 78.205 23.4504 77.6513 24.0283C77.1216 24.6061 76.7003 25.2923 76.3873 26.0868C76.0743 26.8572 75.9178 27.6879 75.9178 28.5787C75.9178 29.4455 76.0743 30.2761 76.3873 31.0706C76.7003 31.8411 77.1216 32.5152 77.6513 33.093C78.205 33.6709 78.8551 34.1283 79.6015 34.4654C80.3719 34.8025 81.1905 34.971 82.0573 34.971Z" fill="url(#paint3_linear)"/>
<path d="M13.7236 27.7932L6.90693 39.1242H0L10.067 22.4663L1.5098 8.02548H8.37159L13.7236 17.1394L22.6921 0H29.599L17.335 22.4663L27.4471 39.1242H20.5854L13.7236 27.7932Z" fill="#F4F4F4"/>
<defs>
<linearGradient id="paint0_linear" x1="93" y1="34.1256" x2="29" y2="35.1256" gradientUnits="userSpaceOnUse">
<stop stop-color="#099FF8"/>
<stop offset="1" stop-color="#046CEA"/>
</linearGradient>
<linearGradient id="paint1_linear" x1="93" y1="34.1256" x2="29" y2="35.1256" gradientUnits="userSpaceOnUse">
<stop stop-color="#099FF8"/>
<stop offset="1" stop-color="#046CEA"/>
</linearGradient>
<linearGradient id="paint2_linear" x1="93" y1="34.1256" x2="29" y2="35.1256" gradientUnits="userSpaceOnUse">
<stop stop-color="#099FF8"/>
<stop offset="1" stop-color="#046CEA"/>
</linearGradient>
<linearGradient id="paint3_linear" x1="93" y1="34.1256" x2="29" y2="35.1256" gradientUnits="userSpaceOnUse">
<stop stop-color="#099FF8"/>
<stop offset="1" stop-color="#046CEA"/>
</linearGradient>
</defs>
</svg>
